<svg width="13" height="21" viewBox="0 0 13 21" fill="none" xmlns="http://www.w3.org/2000/svg">
<path d="M12.0236 8.28517C11.9086 8.10642 11.7111 8.00017 11.4999 8.00017H7.12492V1.12526C7.12492 0.830268 6.91868 0.575272 6.62993 0.514023C6.33618 0.451523 6.04869 0.602771 5.92869 0.871518L0.928758 12.1214C0.842509 12.3139 0.861259 12.5389 0.976257 12.7151C1.09126 12.8926 1.28875 13.0001 1.5 13.0001H5.87494V19.875C5.87494 20.17 6.08119 20.425 6.36993 20.4862C6.41368 20.495 6.45743 20.5 6.49993 20.5C6.74243 20.5 6.96867 20.3587 7.07117 20.1288L12.0711 8.87891C12.1561 8.68516 12.1399 8.46266 12.0236 8.28517Z" fill="white"/>
</svg>
